<?xml version="1.0" standalone="no"?> 
<!DOCTYPE svg PUBLIC "-//W3C//DTD SVG 1.1//EN" "http://www.w3.org/Graphics/SVG/1.1/DTD/svg11.dtd">
<svg id="Untitled-Page%201" viewBox="0 0 578 240" style="background-color:#ffffff00" version="1.1"
	xmlns="http://www.w3.org/2000/svg" xmlns:xlink="http://www.w3.org/1999/xlink" xml:space="preserve"
	x="0px" y="0px" width="578px" height="240px">
	<g id="logo-svg">
		<path d="M 338.7656 119.9336 C 338.8413 53.9248 392.3652 0.5752 458.4111 0.6768 C 524.2041 0.7773 577.5068 54.2451 577.4346 120.0674 C 577.3608 186.2061 523.8813 239.4707 457.6948 239.3223 C 392.0342 239.1758 338.6904 185.626 338.7656 119.9336 Z" fill="#ee5549"/>
		<path d="M 270.0098 119.5137 C 273.1299 116.5405 298.7563 91.9961 308.7319 82.4199 C 309.124 82.0439 309.499 81.7246 310.1055 81.7266 C 316.1738 81.7441 322.2427 81.7412 328.311 81.752 C 328.436 81.752 328.5601 81.8516 328.9087 81.998 C 327.1274 83.6484 304.7393 104.2104 295.1924 112.8896 C 294.3779 113.6299 294.7651 114.0547 295.1821 114.6787 C 305.3828 129.917 329.1201 165.3984 330.7803 167.9063 C 330.9805 168.2061 331.3955 168.5127 331.105 168.9268 C 330.8896 169.2329 330.4761 169.084 330.1523 169.084 C 324.7637 169.0918 319.3745 169.0557 313.9863 169.1196 C 313.0098 169.1309 312.6367 168.6211 312.2065 167.9639 C 304.2578 155.833 285.3076 126.9609 283.8267 124.627 C 283.4121 123.9727 283.1245 123.9072 282.5381 124.4551 C 278.5293 128.1934 274.4971 131.9072 270.4575 135.6104 C 269.896 136.126 270.0132 136.751 270.0132 137.3647 C 270.0078 147.3662 269.9795 157.3682 270.0435 167.3677 C 270.0527 168.7666 269.7192 169.165 268.2969 169.126 C 264.4648 169.0186 260.6265 169.0557 256.792 169.1113 C 255.7598 169.127 255.3726 168.9307 255.3735 167.7769 C 255.4053 128.502 255.4043 89.228 255.3765 49.9531 C 255.3755 48.8711 255.7607 48.6943 256.7158 48.7051 C 260.6479 48.752 264.582 48.7744 268.5132 48.6953 C 269.7261 48.6709 270.0391 49.0039 270.0371 50.2178 C 269.999 72.6465 270.0098 118.5571 270.0098 119.5137 Z" fill="#1fa3e4"/>
		<path d="M 170.3711 95.4961 C 171.6528 93.5918 172.6475 91.9961 173.8521 90.5498 C 179.9492 83.2266 187.9473 80.0625 197.2813 79.832 C 201.7095 79.7227 206.1226 79.9072 210.3979 81.1885 C 220.5459 84.2305 226.229 91.1738 227.9995 101.498 C 228.6245 105.1416 228.8828 108.8145 228.8838 112.5049 C 228.8896 130.8086 228.874 149.1133 228.9131 167.417 C 228.916 168.6924 228.6719 169.165 227.271 169.127 C 223.4385 169.0186 219.5996 169.0264 215.7666 169.124 C 214.4351 169.1582 214.1782 168.7295 214.1812 167.4893 C 214.2188 148.2139 214.2261 128.9395 214.1943 109.6641 C 214.186 104.834 212.8169 100.4844 209.1851 97.0605 C 206.5342 94.5605 203.3252 93.2944 199.7651 92.9346 C 193.9023 92.3418 188.2109 92.9854 183.0161 95.9805 C 176.3936 99.8008 173.1504 105.8984 171.8047 113.1865 C 171.3896 115.4316 171.2324 117.7012 171.2349 119.9902 C 171.2544 135.7686 171.2197 151.5488 171.2852 167.3281 C 171.292 168.8574 170.8481 169.1602 169.4272 169.124 C 165.5942 169.0234 161.7563 169.0625 157.9219 169.1084 C 156.9683 169.1201 156.5679 168.9482 156.5693 167.8594 C 156.5986 139.5547 156.5972 111.249 156.5723 82.9443 C 156.5713 81.9678 156.8774 81.7041 157.8169 81.7158 C 161.603 81.7598 165.3911 81.7646 169.1772 81.7129 C 170.1636 81.7002 170.4004 82.0439 170.3896 82.9756 C 170.3457 87.0029 170.3711 91.0303 170.3711 95.4961 Z" fill="#1fa3e4"/>
		<path d="M 14.5044 100.0664 C 15.5664 98.2476 16.3916 96.728 17.314 95.2715 C 20.9429 89.541 25.4751 84.8047 31.8711 82.1299 C 36.2446 80.2998 40.856 79.8467 45.5273 79.6846 C 46.5195 79.6504 46.877 79.9873 46.8643 81.0225 C 46.813 85.3418 46.8057 89.6631 46.8687 93.9824 C 46.8853 95.0884 46.5513 95.374 45.4717 95.3608 C 40.9741 95.3047 36.5757 95.9668 32.3511 97.5498 C 23.9414 100.6982 19.2959 107.0752 17.082 115.501 C 15.8296 120.2705 15.4121 125.1475 15.394 130.0518 C 15.3477 142.4795 15.3462 154.9063 15.4204 167.332 C 15.4292 168.874 14.9668 169.1582 13.5562 169.123 C 9.7241 169.0264 5.8872 169.0552 2.0527 169.1123 C 1.0356 169.1279 0.7466 168.8408 0.748 167.8145 C 0.7744 139.5615 0.7739 111.3096 0.752 83.0576 C 0.7505 82.0879 0.958 81.6934 2.0244 81.7109 C 5.7612 81.7705 9.5005 81.7695 13.2368 81.7109 C 14.2876 81.6943 14.5303 82.0625 14.5234 83.0469 C 14.4834 88.5796 14.5044 94.1133 14.5044 100.0664 Z" fill="#1fa3e4"/>
		<path d="M 389.3711 93.4155 C 391.519 90.8936 393.5991 88.4277 396.1143 86.3574 C 402.8394 80.8232 410.6875 78.957 419.208 79.2598 C 422.6294 79.3809 425.939 80.0508 429.1577 81.2021 C 435.1572 83.3496 439.2363 87.4121 441.3013 93.4209 C 441.6606 93.458 441.7563 93.2256 441.8867 93.0391 C 448.8574 83.0625 458.6045 78.8589 470.561 79.2529 C 474.6504 79.3887 478.6665 79.9404 482.5537 81.293 C 491.3765 84.3633 496.8853 91.5547 497.4961 100.8652 C 497.5757 102.0742 497.6133 103.2881 497.6143 104.501 C 497.6216 125.2822 497.6084 146.0635 497.6465 166.8447 C 497.6489 168.1328 497.377 168.582 495.9927 168.5439 C 492.1597 168.4385 488.3208 168.458 484.4868 168.5361 C 483.2695 168.5605 482.9502 168.2104 482.9536 167 C 482.9907 148.1611 482.9766 129.3213 482.9819 110.4824 C 482.9834 107.8027 482.7476 105.1494 482.0591 102.5576 C 480.6289 97.1724 477.1821 93.8315 471.7192 92.7139 C 466.4131 91.6279 461.1387 91.9199 456.1514 94.0688 C 448.0562 97.5566 444.2295 104.1494 444.0039 112.6748 C 443.7222 123.3486 443.9067 134.0361 443.897 144.7178 C 443.8901 152.1953 443.8745 159.6724 443.9204 167.1494 C 443.9272 168.2129 443.6938 168.5566 442.5713 168.5361 C 438.6401 168.4619 434.7051 168.4561 430.7744 168.5381 C 429.5449 168.5635 429.2549 168.2031 429.2573 167.0029 C 429.2954 148.2139 429.2891 129.4224 429.2788 110.6318 C 429.2764 108.25 429.0107 105.8892 428.4888 103.5615 C 426.9009 96.4863 422.3716 92.7646 415.1187 92.1963 C 399.667 90.9873 389.9946 104.1768 390.082 115.8145 C 390.2104 132.8076 390.0967 149.8032 390.1494 166.7969 C 390.1543 168.2119 389.7939 168.5811 388.3906 168.543 C 384.5571 168.4395 380.7192 168.4756 376.8843 168.5293 C 375.856 168.5439 375.4473 168.3525 375.4492 167.1934 C 375.4829 138.9834 375.4805 110.7734 375.4546 82.5625 C 375.4541 81.5303 375.7813 81.2471 376.7813 81.2607 C 380.5679 81.3101 384.356 81.3057 388.1426 81.2627 C 389.085 81.252 389.4053 81.5234 389.3921 82.4961 C 389.3403 86.1348 389.3711 89.7754 389.3711 93.4155 Z" fill="#fefefe"/>
		<path d="M 538.873 124.9365 C 538.873 138.96 538.8574 152.9834 538.9004 167.0068 C 538.9038 168.1968 538.6343 168.5645 537.4019 168.5381 C 533.5215 168.4551 529.6377 168.457 525.7568 168.5371 C 524.54 168.5625 524.2324 168.2217 524.2339 167.0117 C 524.2705 143.2349 524.2607 119.459 524.2607 95.6821 C 524.2607 91.3633 524.2969 94.0439 524.2368 89.7266 C 524.2212 88.6094 524.4932 88.2295 525.6724 88.252 C 529.6016 88.3271 533.5342 88.3252 537.4629 88.252 C 538.6353 88.2295 538.8994 88.5996 538.8965 89.7207 C 538.8599 103.793 538.873 110.8643 538.873 124.9365 Z" fill="#fefefe"/>
		<path d="M 521.8672 66.4951 C 521.9365 61.2861 526.3145 57.0479 531.5615 57.1074 C 536.7432 57.167 541.085 61.6436 540.9673 66.8086 C 540.8477 72.0146 536.3652 76.3555 531.248 76.2197 C 525.9893 76.0801 521.7969 71.7324 521.8672 66.4951 Z" fill="#ffffff"/>
		<path d="M 139.1743 158.2842 C 139.1914 157.3428 138.8516 157.2236 138.0869 157.4736 C 136.6899 157.9287 135.2603 158.1582 133.7876 158.0127 C 131.9463 157.8291 131.0073 156.9277 130.6973 155.1089 C 130.354 153.0947 130.2515 151.0586 130.2485 149.0264 C 130.2256 133.7832 130.2476 118.54 130.2324 103.2959 C 130.2217 92.6768 125.2661 85.6172 115.3403 82.0879 C 111.9834 80.8926 108.478 80.4199 104.9404 80.1299 C 97.2085 79.4951 89.5361 79.6748 81.9844 81.6895 C 69.0469 85.1396 60.9321 95.001 60.4634 107.7588 C 60.4199 108.9619 60.7666 109.2275 61.8916 109.21 C 65.8223 109.1509 69.7563 109.1484 73.687 109.2124 C 74.7446 109.2295 75.0645 108.9512 75.1475 107.8682 C 75.667 101.0361 78.9512 96.3232 85.7104 94.2998 C 92.3281 92.3184 99.021 92.167 105.689 93.7461 C 110.7134 94.9365 114.2627 97.9375 115.4214 103.2388 C 116.8813 109.918 114.7075 113.7197 108.2007 115.8242 C 104.9111 116.8887 101.5068 117.3965 98.0874 117.8066 C 90.1826 118.7539 82.3516 120.1074 74.7383 122.4619 C 67.8389 124.5977 62.2456 128.4932 59.1543 135.2666 C 57.0469 139.8877 56.7729 144.8135 57.2461 149.8062 C 58.0054 157.8101 61.8477 163.7793 69.0293 167.4824 C 73.9751 170.0313 79.3521 170.7305 84.8203 170.8535 C 92.8662 171.0352 100.5508 169.5791 107.5942 165.4888 C 110.8838 163.5791 113.6953 161.0752 116.3457 158.0928 C 116.4888 159.3281 116.5757 160.2939 116.7163 161.252 C 117.3535 165.6055 119.5483 168.8398 123.8472 170.126 C 128.7021 171.5771 133.5303 171.0664 138.2163 169.1533 C 138.877 168.8838 139.1816 168.5166 139.1719 167.75 C 139.1289 164.5947 139.1191 161.4395 139.1743 158.2842 ZM 115.3721 140.6968 C 114.5562 146.6968 110.8857 151.0098 105.7285 153.9941 C 98.4121 158.2275 90.5313 159.0234 82.4004 157.2168 C 76.8496 155.9834 73.23 152.125 72.7217 147.46 C 71.9873 140.7285 74.375 135.9033 79.8999 133.0176 C 84.0054 130.8735 88.4893 130.1094 93.0073 129.4653 C 98.5659 128.6724 104.1699 128.1768 109.6499 126.877 C 111.6816 126.3955 113.5957 125.6328 115.6255 124.376 C 115.4912 130.0469 116.0898 135.4189 115.3721 140.6968 Z" fill="#1fa3e4"/>
	</g>
</svg>